<svg width="16" height="18" viewBox="0 0 16 18" fill="none" xmlns="http://www.w3.org/2000/svg">
<path d="M14.8054 2.30052C15.2468 1.76927 15.1765 0.980207 14.6452 0.538801C14.114 0.0973943 13.3249 0.167707 12.8835 0.698957L7.59446 7.04661L2.3054 0.698957C1.864 0.167707 1.07493 0.0973943 0.543683 0.538801C0.0124333 0.980207 -0.0578792 1.76927 0.383527 2.30052L5.96556 8.99974L0.383527 15.699C-0.0578792 16.2302 0.0124333 17.0193 0.543683 17.4607C1.07493 17.9021 1.864 17.8318 2.3054 17.3005L7.59446 10.9529L12.8835 17.3005C13.3249 17.8318 14.114 17.9021 14.6452 17.4607C15.1765 17.0193 15.2468 16.2302 14.8054 15.699L9.22337 8.99974L14.8054 2.30052Z" fill="#1e5c97"/>
</svg>
